<svg width="217" height="55" viewBox="0 0 217 55" fill="none" xmlns="http://www.w3.org/2000/svg">
<path d="M0.836426 35.7835C1.7797 32.9322 2.68009 30.1346 3.53761 27.3905C3.90206 26.2329 4.27722 25.0216 4.66311 23.7568C5.04899 22.4919 5.43488 21.2378 5.82076 19.9944C6.20664 18.751 6.56037 17.5505 6.88194 16.3928C7.22495 15.2352 7.52508 14.1633 7.78234 13.1771C8.96142 13.1771 10.0762 13.1128 11.1267 12.9842C12.1771 12.8556 13.3133 12.7377 14.5353 12.6305C14.471 13.1021 14.396 13.638 14.3102 14.2383C14.2459 14.8171 14.1601 15.4281 14.0529 16.0713C13.9672 16.7144 13.8707 17.379 13.7635 18.065C13.6563 18.751 13.5277 19.63 13.3777 20.7019C13.2276 21.7738 13.0239 23.1136 12.7667 24.7215H13.1847C13.8064 23.0922 14.3209 21.7416 14.7282 20.6697C15.1356 19.5764 15.4679 18.6867 15.7251 18.0007C15.9824 17.3147 16.2396 16.6501 16.4969 16.0069C16.7756 15.3424 17.0328 14.7207 17.2686 14.1418C17.5259 13.5416 17.7617 13.0163 17.9761 12.5661C18.5121 12.5233 19.0158 12.4697 19.4875 12.4054C19.9591 12.341 20.4308 12.2767 20.9024 12.2124C21.374 12.1267 21.8457 12.0516 22.3173 11.9873C22.8104 11.9016 23.3463 11.8051 23.9251 11.6979C23.7108 12.9413 23.5071 14.2169 23.3142 15.5246C23.1212 16.8323 22.9497 18.14 22.7997 19.4477C22.6496 20.734 22.4995 22.0096 22.3495 23.2744C22.2208 24.5393 22.1029 25.7398 21.9957 26.876C21.7385 29.5343 21.5134 32.1283 21.3204 34.658L15.7251 35.6549C15.7251 35.5477 15.7358 35.2583 15.7573 34.7866C15.8001 34.315 15.843 33.7362 15.8859 33.0501C15.9502 32.3641 16.0252 31.6031 16.111 30.767C16.2182 29.9309 16.3147 29.0948 16.4004 28.2588C16.5076 27.4227 16.6148 26.6188 16.722 25.847C16.8292 25.0538 16.9364 24.3785 17.0435 23.8211H16.7541C16.454 24.7215 16.1217 25.6755 15.7573 26.6831C15.3928 27.6692 15.0177 28.6768 14.6318 29.7058C14.2673 30.7348 13.9029 31.7424 13.5384 32.7286C13.174 33.7147 12.8524 34.658 12.5737 35.5584C11.8234 35.5798 11.1803 35.612 10.6443 35.6549C10.1084 35.6763 9.48666 35.7085 8.7792 35.7513L9.80823 23.8211H9.32587C9.283 24.0998 9.17581 24.5714 9.0043 25.236C8.8328 25.8791 8.62914 26.6295 8.39332 27.487C8.17894 28.3231 7.94312 29.202 7.68586 30.1239C7.42861 31.0243 7.18207 31.8711 6.94625 32.6643C6.73187 33.436 6.54965 34.0792 6.39958 34.5937C6.24952 35.0868 6.16377 35.3655 6.14233 35.4298L0.836426 35.7835Z" fill="white"/>
<path d="M33.5446 35.3333C33.0087 35.419 32.4191 35.5155 31.776 35.6227C31.1328 35.7299 30.554 35.8264 30.0395 35.9121C30.1252 35.2047 30.211 34.5079 30.2968 33.8219C30.3611 33.2217 30.4147 32.6214 30.4575 32.0211C30.5219 31.4209 30.5754 30.9063 30.6183 30.4776H27.8207L26.5344 35.1082C26.0627 35.1725 25.5054 35.2475 24.8622 35.3333C24.2191 35.3976 23.6188 35.4619 23.0614 35.5262C22.3754 35.612 21.7001 35.6977 21.0355 35.7835C21.8931 32.9322 22.7399 30.1239 23.5759 27.3584C23.9189 26.2007 24.2727 24.9895 24.6371 23.7246C25.023 22.4598 25.3982 21.2057 25.7626 19.9623C26.1485 18.6974 26.5129 17.4862 26.856 16.3285C27.199 15.1709 27.4991 14.1097 27.7563 13.145C29.2141 13.0378 30.6934 12.9092 32.194 12.7591C33.7161 12.609 35.1953 12.4054 36.6317 12.1481C36.5674 12.8341 36.4923 13.6916 36.4066 14.7207C36.3423 15.7283 36.278 16.8323 36.2136 18.0328C36.1493 19.2334 36.085 20.4875 36.0207 21.7952C35.9564 23.1029 35.8921 24.3892 35.8278 25.654C35.7206 28.6125 35.6027 31.7532 35.474 35.076C34.8309 35.1832 34.1877 35.269 33.5446 35.3333ZM28.5924 27.2619C28.6782 27.2619 28.8282 27.2619 29.0426 27.2619C29.2784 27.2405 29.5143 27.2297 29.7501 27.2297C30.0073 27.2083 30.2432 27.1976 30.4575 27.1976C30.6719 27.1761 30.822 27.1547 30.9077 27.1333C30.9077 27.0046 30.9185 26.7903 30.9399 26.4901C30.9828 26.1686 31.0149 25.8148 31.0364 25.4289C31.0792 25.0216 31.1221 24.5821 31.165 24.1105C31.2079 23.6389 31.2507 23.178 31.2936 22.7278C31.3794 21.6344 31.4866 20.4553 31.6152 19.1905L31.8081 16.3928L31.3258 16.425L30.5862 19.1905L28.5924 27.2619Z" fill="white"/>
<path d="M49.3535 29.0627C48.839 30.2418 48.2602 31.2708 47.6171 32.1498C46.9954 33.0073 46.3308 33.7362 45.6233 34.3364C44.9373 34.9153 44.2406 35.344 43.5331 35.6227C42.8257 35.9014 42.1396 36.0407 41.4751 36.0407C40.8105 36.0407 40.1995 35.8907 39.6421 35.5905C39.1062 35.2904 38.6345 34.8402 38.2272 34.24C37.8199 33.6397 37.4876 32.9001 37.2304 32.0211C36.9945 31.1422 36.8766 30.1131 36.8766 28.9341C36.8766 26.9189 37.1553 24.9359 37.7127 22.985C38.2701 21.0127 39.0526 19.2441 40.0602 17.6791C41.0677 16.1141 42.2576 14.86 43.6296 13.9167C45.0231 12.952 46.5559 12.4697 48.228 12.4697C48.7426 12.4697 49.2356 12.5769 49.7073 12.7912C50.1789 13.0056 50.5862 13.3058 50.9292 13.6916C51.2722 14.0775 51.5402 14.5492 51.7332 15.1065C51.9475 15.6639 52.0547 16.2856 52.0547 16.9717C52.0547 17.1003 52.0547 17.2396 52.0547 17.3897C52.0547 17.5183 52.044 17.6577 52.0226 17.8077L47.81 18.9332C47.5527 18.3973 47.2526 18.1293 46.9096 18.1293C46.5666 18.1293 46.2021 18.333 45.8163 18.7403C45.4518 19.1262 45.0874 19.6407 44.7229 20.2838C44.3585 20.9055 44.0048 21.613 43.6617 22.4062C43.3187 23.178 43.0186 23.9604 42.7614 24.7536C42.5041 25.5469 42.2897 26.3079 42.1182 27.0368C41.9681 27.7442 41.8931 28.3231 41.8931 28.7733C41.8931 29.4593 41.9789 29.9416 42.1504 30.2203C42.3433 30.499 42.5898 30.6384 42.89 30.6384C43.1258 30.6384 43.3938 30.5526 43.6939 30.3811C43.994 30.1882 44.2727 29.9524 44.53 29.6737C44.7872 29.3735 45.0231 29.0412 45.2374 28.6768C45.4518 28.3124 45.6019 27.9479 45.6876 27.5835L49.3535 29.0627Z" fill="white"/>
<path d="M49.1948 36.0407C49.795 33.0394 50.3738 30.1131 50.9312 27.2619C51.1456 26.0399 51.3707 24.7751 51.6065 23.4674C51.8424 22.1382 52.0567 20.8305 52.2497 19.5442C52.4641 18.2579 52.657 17.0145 52.8285 15.814C53.0214 14.592 53.1715 13.488 53.2787 12.5018C53.7718 12.5233 54.222 12.5554 54.6293 12.5983C55.058 12.6197 55.4761 12.6412 55.8834 12.6626C56.2907 12.6841 56.6981 12.7055 57.1054 12.7269C57.5341 12.7269 57.9951 12.7269 58.4881 12.7269C58.1237 14.249 57.7592 15.7711 57.3948 17.2932C57.0518 18.8153 56.7302 20.3481 56.4301 21.8917L59.6136 21.5379C59.9138 20.0158 60.1817 18.5473 60.4175 17.1324C60.6534 15.6961 60.9642 14.2169 61.3501 12.6948C61.8432 12.609 62.3898 12.5447 62.9901 12.5018C63.5904 12.4375 64.1478 12.3839 64.6623 12.341C65.1768 12.2982 65.6055 12.266 65.9485 12.2446C66.313 12.2017 66.4952 12.1803 66.4952 12.1803C66.1951 13.145 65.9057 14.2062 65.627 15.3638C65.3697 16.5 65.1125 17.6898 64.8552 18.9332C64.598 20.1552 64.3514 21.3986 64.1156 22.6634C63.8798 23.9283 63.6654 25.1288 63.4725 26.265C63.0008 28.9876 62.5613 31.7746 62.154 34.6258L57.1375 35.2047C57.4162 33.9184 57.6628 32.6643 57.8771 31.4423C58.0915 30.4133 58.3059 29.3414 58.5203 28.2266C58.7561 27.1118 58.9383 26.1578 59.067 25.3646L55.9477 25.654C55.7977 26.4687 55.6154 27.412 55.4011 28.4839C55.2081 29.5558 55.0259 30.5741 54.8544 31.5388C54.6186 32.6964 54.3828 33.8541 54.1469 35.0117L49.1948 36.0407Z" fill="white"/>
<path d="M68.5985 35.3333C68.4055 35.3333 68.0197 35.3655 67.4408 35.4298C66.8834 35.4726 66.3046 35.537 65.7044 35.6227C65.1041 35.687 64.5574 35.7513 64.0644 35.8156C63.5927 35.88 63.3355 35.9228 63.2926 35.9443C63.507 35.0224 63.7213 34.0041 63.9357 32.8894C64.1715 31.7532 64.4074 30.5741 64.6432 29.3521C64.879 28.1087 65.1041 26.8546 65.3185 25.5897C65.5329 24.3249 65.7365 23.1029 65.9295 21.9238C66.3797 19.1798 66.8298 16.3607 67.2801 13.4665L72.2965 12.6626C71.8035 15.5353 71.3211 18.3544 70.8495 21.1199C70.6565 22.299 70.4529 23.521 70.2385 24.7858C70.0456 26.0506 69.8419 27.3048 69.6275 28.5482C69.4346 29.7916 69.2523 31.0028 69.0808 32.1819C68.9093 33.3396 68.7486 34.39 68.5985 35.3333Z" fill="white"/>
<path d="M69.7931 36.1372C70.4362 33.0501 71.0472 30.0595 71.626 27.1654C71.8404 25.922 72.0655 24.6357 72.3013 23.3066C72.5586 21.9774 72.7944 20.6697 73.0088 19.3834C73.2231 18.0757 73.4161 16.8323 73.5876 15.6532C73.7591 14.4527 73.8877 13.3701 73.9735 12.4054C74.2522 12.4268 74.488 12.4375 74.6809 12.4375C74.8739 12.4375 75.099 12.4375 75.3562 12.4375C75.6564 12.4375 76.0208 12.4375 76.4496 12.4375C76.8783 12.4161 77.3071 12.3946 77.7358 12.3732C78.1646 12.3518 78.6255 12.3303 79.1186 12.3089C79.4187 13.8095 79.6867 15.2566 79.9225 16.6501C80.1583 17.872 80.3942 19.1262 80.63 20.4125C80.8872 21.6987 81.1123 22.7921 81.3053 23.6925C81.391 23.2637 81.4875 22.7706 81.5947 22.2132C81.7019 21.6344 81.8198 21.0342 81.9484 20.4125C82.077 19.7907 82.1949 19.169 82.3021 18.5473C82.4308 17.9042 82.5594 17.2718 82.688 16.6501C82.9882 15.2566 83.299 13.8203 83.6206 12.341L87.5437 11.8587C86.8148 15.1387 86.1717 18.2472 85.6143 21.1842C85.357 22.4491 85.0998 23.7353 84.8425 25.0431C84.6067 26.3293 84.3816 27.5727 84.1672 28.7733C83.9529 29.9524 83.7706 31.0564 83.6206 32.0854C83.4705 33.093 83.3526 33.9398 83.2668 34.6258C83.2025 34.6258 82.9453 34.6794 82.4951 34.7866C82.0663 34.8724 81.5625 34.9796 80.9837 35.1082C80.4263 35.2368 79.8582 35.3655 79.2794 35.4941C78.722 35.6227 78.3039 35.7406 78.0253 35.8478C77.8966 34.1328 77.7573 32.5035 77.6072 30.9599C77.5429 30.2954 77.4679 29.6201 77.3821 28.9341C77.3178 28.2266 77.2428 27.5513 77.157 26.9082C77.0713 26.265 76.9855 25.6648 76.8998 25.1074C76.814 24.55 76.7283 24.0676 76.6425 23.6603C76.5782 24.0676 76.4924 24.5393 76.3853 25.0752C76.2781 25.6112 76.1709 26.1793 76.0637 26.7795C75.9565 27.3798 75.8493 28.0122 75.7421 28.6768C75.6349 29.3199 75.517 29.9416 75.3884 30.5419C75.1097 31.9782 74.8096 33.4789 74.488 35.0439L69.7931 36.1372Z" fill="white"/>
<path d="M84.4293 36.0086L88.6418 13.145L98.8034 12.2767C98.6534 12.7484 98.5247 13.2307 98.4176 13.7238C98.3104 14.1311 98.2032 14.5599 98.096 15.0101C98.0102 15.4388 97.9352 15.8247 97.8709 16.1677C97.6565 16.1892 97.3457 16.2106 96.9383 16.232C96.5525 16.232 96.1344 16.2428 95.6842 16.2642C95.234 16.2642 94.7731 16.2642 94.3015 16.2642C93.8513 16.2642 93.4547 16.2642 93.1117 16.2642L91.9862 22.0203C92.6507 21.9774 93.2724 21.9453 93.8513 21.9238C94.3229 21.9024 94.8053 21.8917 95.2983 21.8917C95.7914 21.8917 96.1559 21.881 96.3917 21.8595C96.3059 22.4598 96.2202 23.0493 96.1344 23.6282C96.0701 24.207 95.9843 24.7965 95.8772 25.3968C95.6628 25.4182 95.3091 25.4397 94.816 25.4611C94.3443 25.4611 93.862 25.4718 93.3689 25.4933C92.8115 25.5147 92.2005 25.5361 91.536 25.5576L90.4426 31.4745L95.1376 30.7348L94.816 34.4007L84.4293 36.0086Z" fill="white"/>
<path d="M109.377 28.0337C109.377 29.2342 109.142 30.3275 108.67 31.3137C108.22 32.2784 107.598 33.1145 106.805 33.8219C106.033 34.5294 105.111 35.076 104.039 35.4619C102.989 35.8478 101.853 36.0407 100.631 36.0407C99.7731 36.0407 98.9156 35.8157 98.0581 35.3655C97.2005 34.8938 96.3752 34.1542 95.582 33.1466L97.9616 28.4839C98.1117 28.7626 98.3367 29.052 98.6369 29.3521C98.937 29.6308 99.2693 29.8773 99.6338 30.0917C100.02 30.3061 100.395 30.4883 100.759 30.6384C101.145 30.767 101.488 30.8313 101.788 30.8313C102.046 30.8313 102.313 30.7884 102.592 30.7027C102.871 30.6169 103.128 30.4883 103.364 30.3168C103.6 30.1453 103.782 29.9524 103.911 29.738C104.061 29.5022 104.136 29.2342 104.136 28.9341C104.136 28.4195 103.964 27.9479 103.621 27.5191C103.3 27.0689 102.892 26.6509 102.399 26.265C101.906 25.8577 101.37 25.4504 100.791 25.0431C100.213 24.6357 99.6766 24.207 99.1835 23.7568C98.7119 23.3066 98.3046 22.8028 97.9616 22.2454C97.6186 21.688 97.4471 21.0663 97.4471 20.3803C97.4471 19.2655 97.7794 18.2258 98.4439 17.2611C99.1085 16.2964 99.9339 15.471 100.92 14.785C101.928 14.0775 103.021 13.5201 104.2 13.1128C105.379 12.7055 106.494 12.5018 107.544 12.5018C108.123 12.5018 108.67 12.5769 109.184 12.7269C109.699 12.8556 110.138 13.0807 110.503 13.4022C110.889 13.7024 111.189 14.0882 111.403 14.5599C111.639 15.0315 111.757 15.6211 111.757 16.3285C111.757 16.6286 111.725 16.9288 111.66 17.2289C111.618 17.529 111.575 17.8506 111.532 18.1936L106.869 19.5442C106.912 19.3727 106.944 19.2012 106.966 19.0297C107.008 18.8582 107.03 18.6867 107.03 18.5152C107.03 17.872 106.912 17.4111 106.676 17.1324C106.462 16.8323 106.172 16.6822 105.808 16.6822C105.636 16.6822 105.422 16.7466 105.165 16.8752C104.929 17.0038 104.682 17.1753 104.425 17.3897C104.189 17.5826 103.986 17.8185 103.814 18.0971C103.643 18.3758 103.557 18.676 103.557 18.9975C103.557 19.5121 103.696 19.9408 103.975 20.2838C104.275 20.6268 104.64 20.9484 105.068 21.2485C105.497 21.5487 105.958 21.8595 106.451 22.1811C106.966 22.4812 107.437 22.8778 107.866 23.3709C108.295 23.864 108.648 24.4857 108.927 25.236C109.227 25.9649 109.377 26.8974 109.377 28.0337Z" fill="white"/>
<path d="M171.472 28.0336C171.472 29.2342 171.236 30.3275 170.765 31.3136C170.314 32.2783 169.693 33.1144 168.9 33.8219C168.128 34.5293 167.206 35.076 166.134 35.4619C165.084 35.8478 163.947 36.0407 162.725 36.0407C161.868 36.0407 161.01 35.8156 160.153 35.3654C159.295 34.8938 158.47 34.1542 157.677 33.1466L160.056 28.4838C160.206 28.7625 160.432 29.0519 160.732 29.3521C161.032 29.6308 161.364 29.8773 161.729 30.0917C162.114 30.3061 162.49 30.4883 162.854 30.6383C163.24 30.767 163.583 30.8313 163.883 30.8313C164.14 30.8313 164.408 30.7884 164.687 30.7027C164.966 30.6169 165.223 30.4883 165.459 30.3168C165.695 30.1453 165.877 29.9523 166.005 29.7379C166.155 29.5021 166.231 29.2342 166.231 28.934C166.231 28.4195 166.059 27.9479 165.716 27.5191C165.394 27.0689 164.987 26.6509 164.494 26.265C164.001 25.8577 163.465 25.4503 162.886 25.043C162.307 24.6357 161.771 24.2069 161.278 23.7567C160.807 23.3065 160.399 22.8028 160.056 22.2454C159.713 21.688 159.542 21.0663 159.542 20.3803C159.542 19.2655 159.874 18.2257 160.539 17.261C161.203 16.2963 162.029 15.471 163.015 14.7849C164.022 14.0775 165.116 13.5201 166.295 13.1128C167.474 12.7055 168.589 12.5018 169.639 12.5018C170.218 12.5018 170.765 12.5768 171.279 12.7269C171.794 12.8555 172.233 13.0806 172.598 13.4022C172.983 13.7023 173.284 14.0882 173.498 14.5598C173.734 15.0315 173.852 15.621 173.852 16.3285C173.852 16.6286 173.82 16.9287 173.755 17.2289C173.712 17.529 173.67 17.8506 173.627 18.1936L168.964 19.5442C169.007 19.3727 169.039 19.2012 169.06 19.0297C169.103 18.8582 169.125 18.6867 169.125 18.5152C169.125 17.872 169.007 17.4111 168.771 17.1324C168.557 16.8323 168.267 16.6822 167.903 16.6822C167.731 16.6822 167.517 16.7465 167.26 16.8751C167.024 17.0038 166.777 17.1753 166.52 17.3897C166.284 17.5826 166.08 17.8184 165.909 18.0971C165.737 18.3758 165.652 18.6759 165.652 18.9975C165.652 19.512 165.791 19.9408 166.07 20.2838C166.37 20.6268 166.734 20.9484 167.163 21.2485C167.592 21.5486 168.053 21.8595 168.546 22.1811C169.06 22.4812 169.532 22.8778 169.961 23.3709C170.389 23.8639 170.743 24.4856 171.022 25.236C171.322 25.9649 171.472 26.8974 171.472 28.0336Z" fill="white"/>
<path d="M189.052 18.5795C189.052 20.3374 188.859 21.9988 188.473 23.5638C188.109 25.1073 187.616 26.533 186.994 27.8407C186.372 29.127 185.643 30.2846 184.807 31.3136C183.993 32.3212 183.135 33.1895 182.235 33.9184C181.334 34.6258 180.423 35.1725 179.501 35.5584C178.579 35.9228 177.701 36.105 176.864 36.105C176.157 36.105 175.514 35.9764 174.935 35.7191C174.356 35.4405 173.852 35.0438 173.424 34.5293C172.995 33.9934 172.652 33.3181 172.395 32.5034C172.159 31.6674 172.041 30.6705 172.041 29.5128C172.041 28.3123 172.191 27.0475 172.491 25.7183C172.791 24.3892 173.199 23.0707 173.713 21.763C174.228 20.4553 174.86 19.2119 175.61 18.0328C176.361 16.8537 177.186 15.814 178.086 14.9136C178.987 13.9917 179.952 13.2628 180.981 12.7269C182.01 12.1909 183.081 11.923 184.196 11.923C185.161 11.923 185.954 12.1266 186.576 12.534C187.219 12.9198 187.712 13.4344 188.055 14.0775C188.42 14.6992 188.677 15.4066 188.827 16.1999C188.977 16.9931 189.052 17.7863 189.052 18.5795ZM176.832 28.6768C176.832 28.9126 176.875 29.1591 176.961 29.4164C177.047 29.6736 177.165 29.8987 177.315 30.0917C177.465 30.2846 177.647 30.4561 177.861 30.6062C178.097 30.7348 178.344 30.7991 178.601 30.7991C179.566 30.7991 180.423 30.4668 181.173 29.8023C181.924 29.1377 182.545 28.323 183.039 27.3583C183.532 26.3936 183.907 25.3646 184.164 24.2713C184.443 23.1779 184.582 22.1811 184.582 21.2807C184.582 21.0234 184.561 20.7447 184.518 20.4446C184.496 20.1444 184.432 19.8658 184.325 19.6085C184.239 19.3512 184.089 19.1369 183.875 18.9654C183.682 18.7724 183.414 18.6759 183.071 18.6759C182.385 18.6759 181.752 18.8474 181.173 19.1905C180.595 19.5335 180.069 19.9944 179.598 20.5732C179.148 21.1306 178.751 21.7737 178.408 22.5026C178.065 23.2101 177.765 23.939 177.508 24.6893C177.272 25.4182 177.1 26.1364 176.993 26.8438C176.886 27.5513 176.832 28.1623 176.832 28.6768Z" fill="white"/>
<path d="M200.28 29.7058C199.98 30.9278 199.551 31.9675 198.994 32.825C198.458 33.6825 197.815 34.39 197.064 34.9474C196.335 35.5048 195.553 35.9121 194.717 36.1693C193.881 36.4266 193.045 36.5552 192.209 36.5552C191.716 36.5552 191.212 36.4695 190.697 36.298C190.183 36.1479 189.722 35.9121 189.314 35.5905C188.907 35.2689 188.564 34.8616 188.285 34.3686C188.028 33.8755 187.9 33.2967 187.9 32.6321C187.9 32.5463 187.9 32.4606 187.9 32.3748C187.9 32.2891 187.91 32.2033 187.932 32.1176C188.017 31.2386 188.157 30.1774 188.35 28.934C188.543 27.6906 188.746 26.3936 188.961 25.043C189.175 23.6924 189.411 22.3418 189.668 20.9912C189.925 19.6192 190.151 18.3758 190.343 17.261C190.558 16.1463 190.74 15.2244 190.89 14.4955C191.04 13.7452 191.137 13.2843 191.18 13.1128C191.63 13.0699 192.166 13.0163 192.787 12.952C193.409 12.8877 193.988 12.8341 194.524 12.7912C195.188 12.7269 195.842 12.6626 196.485 12.5983C195.928 15.1923 195.435 17.5397 195.006 19.6407C194.813 20.541 194.62 21.4414 194.427 22.3418C194.256 23.2422 194.084 24.0676 193.913 24.8179C193.763 25.5683 193.623 26.2221 193.495 26.7795C193.388 27.3155 193.291 27.7549 193.205 28.0979C193.141 28.4409 193.055 28.8804 192.948 29.4164C192.862 29.9309 192.82 30.4025 192.82 30.8313C192.82 31.1743 192.905 31.4637 193.077 31.6995C193.248 31.9139 193.463 32.0211 193.72 32.0211C194.084 32.0211 194.385 31.8817 194.62 31.6031C194.856 31.3029 195.049 30.9492 195.199 30.5419C195.371 30.1345 195.489 29.7272 195.553 29.3199C195.639 28.8911 195.714 28.5589 195.778 28.323C195.907 27.7013 196.046 27.0153 196.196 26.265C196.368 25.4932 196.528 24.7 196.678 23.8854C196.85 23.0493 197.011 22.2025 197.161 21.345C197.332 20.4875 197.493 19.6514 197.643 18.8367C198.008 16.9502 198.361 14.9993 198.704 12.9842L203.592 12.6626C203.592 12.6626 203.539 12.9413 203.431 13.4987C203.324 14.0561 203.185 14.7957 203.013 15.7175C202.842 16.6393 202.649 17.6898 202.435 18.8689C202.242 20.048 202.016 21.2807 201.759 22.5669C201.502 23.8318 201.245 25.0859 200.987 26.3293C200.752 27.5513 200.516 28.6768 200.28 29.7058Z" fill="white"/>
<path d="M214.62 28.0336C214.62 29.2342 214.384 30.3275 213.913 31.3136C213.463 32.2783 212.841 33.1144 212.048 33.8219C211.276 34.5293 210.354 35.076 209.282 35.4619C208.232 35.8478 207.096 36.0407 205.874 36.0407C205.016 36.0407 204.159 35.8156 203.301 35.3654C202.443 34.8938 201.618 34.1542 200.825 33.1466L203.205 28.4838C203.355 28.7625 203.58 29.0519 203.88 29.3521C204.18 29.6308 204.512 29.8773 204.877 30.0917C205.263 30.3061 205.638 30.4883 206.002 30.6383C206.388 30.767 206.731 30.8313 207.031 30.8313C207.288 30.8313 207.556 30.7884 207.835 30.7027C208.114 30.6169 208.371 30.4883 208.607 30.3168C208.843 30.1453 209.025 29.9523 209.154 29.7379C209.304 29.5021 209.379 29.2342 209.379 28.934C209.379 28.4195 209.207 27.9479 208.864 27.5191C208.543 27.0689 208.135 26.6509 207.642 26.265C207.149 25.8577 206.613 25.4503 206.034 25.043C205.456 24.6357 204.92 24.2069 204.426 23.7567C203.955 23.3065 203.548 22.8028 203.205 22.2454C202.862 21.688 202.69 21.0663 202.69 20.3803C202.69 19.2655 203.022 18.2257 203.687 17.261C204.351 16.2963 205.177 15.471 206.163 14.7849C207.171 14.0775 208.264 13.5201 209.443 13.1128C210.622 12.7055 211.737 12.5018 212.787 12.5018C213.366 12.5018 213.913 12.5768 214.427 12.7269C214.942 12.8555 215.381 13.0806 215.746 13.4022C216.132 13.7023 216.432 14.0882 216.646 14.5598C216.882 15.0315 217 15.621 217 16.3285C217 16.6286 216.968 16.9287 216.903 17.2289C216.861 17.529 216.818 17.8506 216.775 18.1936L212.112 19.5442C212.155 19.3727 212.187 19.2012 212.208 19.0297C212.251 18.8582 212.273 18.6867 212.273 18.5152C212.273 17.872 212.155 17.4111 211.919 17.1324C211.705 16.8323 211.415 16.6822 211.051 16.6822C210.879 16.6822 210.665 16.7465 210.408 16.8751C210.172 17.0038 209.925 17.1753 209.668 17.3897C209.432 17.5826 209.229 17.8184 209.057 18.0971C208.886 18.3758 208.8 18.6759 208.8 18.9975C208.8 19.512 208.939 19.9408 209.218 20.2838C209.518 20.6268 209.882 20.9484 210.311 21.2485C210.74 21.5486 211.201 21.8595 211.694 22.1811C212.208 22.4812 212.68 22.8778 213.109 23.3709C213.538 23.8639 213.891 24.4856 214.17 25.236C214.47 25.9649 214.62 26.8974 214.62 28.0336Z" fill="white"/>
<g filter="url(#filter0_d)">
<rect x="123.826" width="26.7975" height="44.6625" rx="2" transform="rotate(5.28737 123.826 0)" fill="url(#paint0_linear)"/>
</g>
<path d="M138.427 33.0124C137.98 33.0804 137.489 33.1568 136.953 33.2417C136.416 33.3266 135.934 33.403 135.505 33.4709C135.577 32.9105 135.648 32.3587 135.72 31.8153C135.773 31.3398 135.818 30.8643 135.854 30.3888C135.907 29.9134 135.952 29.5058 135.988 29.1662H133.656L132.584 32.8341C132.19 32.8851 131.726 32.9445 131.19 33.0124C130.654 33.0634 130.153 33.1143 129.689 33.1653C129.117 33.2332 128.554 33.3011 128 33.369C128.715 31.1105 129.421 28.886 130.118 26.6954C130.403 25.7785 130.698 24.819 131.002 23.8171C131.324 22.8153 131.636 21.8219 131.94 20.837C132.262 19.8351 132.566 18.8756 132.852 17.9587C133.137 17.0417 133.388 16.2011 133.602 15.437C134.817 15.352 136.05 15.2502 137.301 15.1313C138.57 15.0124 139.803 14.8511 141 14.6473C140.946 15.1907 140.884 15.87 140.812 16.6851C140.759 17.4832 140.705 18.3577 140.652 19.3087C140.598 20.2596 140.544 21.253 140.491 22.2888C140.437 23.3247 140.384 24.3436 140.33 25.3454C140.241 27.6888 140.142 30.1766 140.035 32.8087C139.499 32.8936 138.963 32.9615 138.427 33.0124ZM134.299 26.619C134.37 26.619 134.496 26.619 134.674 26.619C134.871 26.602 135.067 26.5936 135.264 26.5936C135.478 26.5766 135.675 26.5681 135.854 26.5681C136.032 26.5511 136.157 26.5341 136.229 26.5171C136.229 26.4153 136.238 26.2454 136.256 26.0077C136.291 25.753 136.318 25.4728 136.336 25.1671C136.372 24.8445 136.408 24.4964 136.443 24.1228C136.479 23.7492 136.515 23.3841 136.551 23.0275C136.622 22.1615 136.711 21.2275 136.819 20.2256L136.979 18.0096L136.577 18.0351L135.961 20.2256L134.299 26.619ZM137.167 14.3671C136.256 14.1634 135.38 13.9596 134.54 13.7558C133.808 13.603 133.057 13.4332 132.289 13.2464C131.52 13.0426 130.877 12.8643 130.359 12.7115C130.466 12.219 130.591 11.6247 130.734 10.9285C130.877 10.2153 131.011 9.52752 131.136 8.86526C131.297 8.08412 131.458 7.28601 131.619 6.47092C132.315 7.18412 133.012 7.88035 133.709 8.5596C134.299 9.15394 134.924 9.79073 135.586 10.47C136.265 11.1492 136.854 11.7605 137.355 12.3039L137.167 14.3671Z" fill="#C2003C"/>
<defs>
<filter id="filter0_d" x="115.71" y="0" width="38.7992" height="54.9419" filterUnits="userSpaceOnUse" color-interpolation-filters="sRGB">
<feFlood flood-opacity="0" result="BackgroundImageFix"/>
<feColorMatrix in="SourceAlpha" type="matrix" values="0 0 0 0 0 0 0 0 0 0 0 0 0 0 0 0 0 0 127 0"/>
<feOffset dy="4"/>
<feGaussianBlur stdDeviation="2"/>
<feColorMatrix type="matrix" values="0 0 0 0 0 0 0 0 0 0 0 0 0 0 0 0 0 0 0.25 0"/>
<feBlend mode="normal" in2="BackgroundImageFix" result="effect1_dropShadow"/>
<feBlend mode="normal" in="SourceGraphic" in2="effect1_dropShadow" result="shape"/>
</filter>
<linearGradient id="paint0_linear" x1="137.224" y1="0" x2="137.224" y2="44.6625" gradientUnits="userSpaceOnUse">
<stop stop-color="white"/>
<stop offset="1" stop-color="#C4C4C4"/>
</linearGradient>
</defs>
</svg>
